{"title":"The.Finest.Hours.2016.WEBRip.480p.x264.AAC-VYTO [P2PDL]","uid":14238843,"size":483445093,"categoryP":"video","categoryS":"movies","magnet":"?xt=urn:btih:ee8f843dd3a7e9d8503921c85a9805f45a4821ce&amp;dn=The.Finest.Hours.2016.WEBRip.480p.x264.AAC-VYTO+%5BP2PDL%5D&amp;tr=udp%3A%2F%2Ftracker.leechers-paradise.org%3A6969&amp;tr=udp%3A%2F%2Fzer0day.ch%3A1337&amp;tr=udp%3A%2F%2Fopen.demonii.com%3A1337&amp;tr=udp%3A%2F%2Ftracker.coppersurfer.tk%3A6969&amp;tr=udp%3A%2F%2Fexodus.desync.com%3A6969","seeders":2,"leechers":3,"uploader":"VYTOP2PDL","files":6,"time":1460121211,"description":"____    ____ ____    ____ .___________.  ______   \r\n     /   /      /   / |           | /  __    \r\n    /   /      /   /  `---|  |----`|  |  |  | \r\n        /     _    _/       |  |     |  |  |  | \r\n       /        |  |         |  |     |  `--'  | \r\n    __/         |__|         |__|      ______/  \r\n                                                  \r\nPresenting Small Encodes with quality for years!\r\n                                                                                                   \r\n                                                                                                   \r\n\r\n\r\nThe.Finest.Hours.2016.WEBRip.480p.x264.AAC-VYTO\r\n\r\n\r\nGenre: Action, Drama, History \nhttp://www.imdb.com/title/tt2025690/\r\n\r\n\r\nFormat                                   : MPEG-4\r\nFile size                                : 451 MiB\r\nDuration                                 : 1h 57mn\r\nOverall bit rate                         : 538 Kbps\r\n\r\nVideo\r\nFormat                                   : AVC\r\nBit rate                                 : 495 Kbps\r\nWidth                                    : 720 pixels\r\nHeight                                   : 304 pixels\r\nDisplay aspect ratio                     : 2.35:1\r\nFrame rate mode                          : Constant\r\nFrame rate                               : 23.976 fps\r\nBit depth                                : 8 bits\r\nStream size                              : 415 MiB (92%)\r\nWriting library                          : x264\r\n\r\nAudi\r\nFormat                                   : AAC\r\nBit rate mode                            : Variable\r\nBit rate                                 : 39.9 Kbps\r\nChannel(s)                               : 2 channels\r\nChannel positions                        : Front: L R\r\nSampling rate                            : 48.0 KHz\r\nStream size                              : 33.5 MiB (7%)\r\nLanguage                                 : English\r\n\r\nSubtitle                                 : N/a\r\n\r\nScreen Shots: (Click to view)\r\n \nhttp://ititli.com/XMF \nhttp://ititli.com/XMJ \nhttp://ititli.com/XM5 \nhttp://ititli.com/XMB \nhttp://ititli.com/XMN \nhttp://ititli.com/XMP \nhttp://ititli.com/XMf \nhttp://ititli.com/XMu \nhttp://ititli.com/XMv \nhttp://ititli.com/XMR \nhttp://ititli.com/XMy \nhttp://ititli.com/XM3\r\n\r\n----------------------------------------------------------------------------------------------------\r\n\r\n\r\nEncoder Notes: Looking For Early Access To Anything You Can Provide WEBDL, DVDScr, DVDR, BluRay,\r\nDirect Audio, Music Releases and Seedboxes. If You Got anything to offer please contact us.\r\n\r\nSupport us by donating BC - 1FgwdzPsd1y25Gea8wP1qni35uGCtmkRCD\r\n\r\nFind us and join us!","torrent":{"xt":"urn:btih:ee8f843dd3a7e9d8503921c85a9805f45a4821ce","amp;dn":"The.Finest.Hours.2016.WEBRip.480p.x264.AAC-VYTO+%5BP2PDL%5D","amp;tr":["udp%3A%2F%2Ftracker.leechers-paradise.org%3A6969","udp%3A%2F%2Fzer0day.ch%3A1337","udp%3A%2F%2Fopen.demonii.com%3A1337","udp%3A%2F%2Ftracker.coppersurfer.tk%3A6969","udp%3A%2F%2Fexodus.desync.com%3A6969"],"infoHash":"ee8f843dd3a7e9d8503921c85a9805f45a4821ce","infoHashBuffer":{"type":"Buffer","data":[238,143,132,61,211,167,233,216,80,57,33,200,90,152,5,244,90,72,33,206]},"announce":[],"urlList":[]}}